# xmcd
#
# Track frame offsets: 
#        150
#        16704
#        27590
#        47439
#
# Disc length: 1031 seconds
#
# Revision: 3
# Processed by: cddbd v1.5.2PL0 Copyright (c) Steve Scherf et al.
# Submitted via: ExactAudioCopyFreeDBPlugin 1.0
#
DISCID=23040504
DTITLE=Alexandra Burke - Hallelujah (Single)
DYEAR=2008
DGENRE=Pop
TTITLE0=Hallelujah
TTITLE1=Candyman
TTITLE2=Without You
TTITLE3=Data track
EXTD=
EXTT0=
EXTT1=
EXTT2=
EXTT3=
PLAYORDER=
